<?xml version="1.0" standalone="no"?><!DOCTYPE svg PUBLIC "-//W3C//DTD SVG 1.1//EN" "http://www.w3.org/Graphics/SVG/1.1/DTD/svg11.dtd"><svg t="1565486435768" class="icon" viewBox="0 0 1105 1024" version="1.1" xmlns="http://www.w3.org/2000/svg" p-id="1630" xmlns:xlink="http://www.w3.org/1999/xlink" width="215.8203125" height="200"><defs><style type="text/css"></style></defs><path d="M994.390361 0H111.036145C49.966265 0 0 49.966265 0 111.036145v801.92771c0 61.06988 49.966265 111.036145 111.036145 111.036145h883.354216c61.06988 0 111.036145-49.966265 111.036145-111.036145V111.036145c0-61.06988-49.966265-111.036145-111.036145-111.036145zM140.016578 268.806169h206.354506v73.690988H140.016578z m0 275.122891h206.354506v73.690988H140.016578z m797.473928 282.870747V826.60241H368.64v0.197397h-73.690988a312.233639 312.233639 0 0 1 8.549783-72.790361V752.578313h0.333109a314.960193 314.960193 0 0 1 19.739759-56.579084 331.936386 331.936386 0 0 1 77.35518-105.990169 363.260916 363.260916 0 0 1 160.977735-85.744578 172.957301 172.957301 0 1 1 182.407711 0 363.14988 363.14988 0 0 1 160.965398 85.744578 331.936386 331.936386 0 0 1 77.35518 105.990169 311.925205 311.925205 0 0 1 28.597976 130.775904z" p-id="1631"></path></svg>