<svg t="1604393165077" class="icon" viewBox="0 0 1024 1024" version="1.1" xmlns="http://www.w3.org/2000/svg" p-id="2596" width="32" height="32"><path d="M811.3 205.1c-96.9-9.3-187-41.9-264.7-92C536.1 106.4 524 103 512 103s-24.1 3.4-34.6 10.2c-77.6 50.1-167.8 82.7-264.7 92-32.8 3.2-57.7 30.8-57.7 63.7v295.6c0 197 267.8 356.6 357 356.6s357-159.6 357-356.6V268.8c0-32.9-25-60.5-57.7-63.7zM693 421.5L466.8 647.8c-12.5 12.4-32.8 12.4-45.3 0L331 557.3c-12.4-12.4-12.4-32.8 0-45.3 6.2-6.2 14.4-9.3 22.6-9.3s16.4 3.1 22.6 9.3l67.9 67.9 203.6-203.6c12.5-12.5 32.8-12.5 45.3 0 6.2 6.2 9.3 14.4 9.3 22.6 0 8.2-3.1 16.4-9.3 22.6z" p-id="2597"></path></svg>